# xmcd
# 
# Track frame offsets:
#     150
#     13728
#     29020
#     51443
#     66790
#     90963
#     111400
#     134425
#     155755
#     170998
# 
# Disc length: 2648
# 
# Revision: 5
# Processed by: cddbd v1.5.2PL0 Copyright (c) Steve Scherf et al.
# Submitted via: fre:ac v1.0.27
# 
DISCID=910a560a
DTITLE=Ry Cooder - Borderline
DYEAR=1980
DGENRE=Blues
TTITLE0=634-5789
TTITLE1=Speedo
TTITLE2=Why Don't You Try Me
TTITLE3=Down On The Boondocks
TTITLE4=Johnny Porter
TTITLE5=The Way We Make A Broken Heart
TTITLE6=Crazy 'bout An Automobile (Every Woman I Know)
TTITLE7=The Girls From Texas
TTITLE8=Borderline
TTITLE9=Never Make Your Move Too Soon
EXTD=
EXTT0=
EXTT1=
EXTT2=
EXTT3=
EXTT4=
EXTT5=
EXTT6=
EXTT7=
EXTT8=
EXTT9=
PLAYORDER=
